<svg width="177" height="18" viewBox="0 0 177 18" fill="none" xmlns="http://www.w3.org/2000/svg">
<path d="M4.13277 14.904H0.98877V17.376H18.4368V14.904H15.2928V0.624047H4.13277V14.904ZM6.60477 3.07205H12.8448V14.904H6.60477V3.07205Z" fill="#101828"/>
<path d="M36.8823 9.00005C36.8823 4.03205 32.8503 0.0240479 27.9063 0.0240479C22.9383 0.0240479 18.9303 4.03205 18.9303 9.00005C18.9303 13.944 22.9383 17.976 27.9063 17.976C32.8503 17.976 36.8823 13.944 36.8823 9.00005ZM21.4503 9.00005C21.4503 7.27205 22.1223 5.64005 23.3463 4.44005C24.5703 3.21605 26.1783 2.54405 27.9063 2.54405C29.6343 2.54405 31.2423 3.21605 32.4663 4.44005C33.6903 5.64005 34.3383 7.27205 34.3383 9.00005C34.3383 10.704 33.6903 12.336 32.4663 13.536C31.2423 14.76 29.6343 15.432 27.9063 15.432C26.1783 15.432 24.5703 14.76 23.3463 13.536C22.1223 12.336 21.4503 10.704 21.4503 9.00005Z" fill="#101828"/>
<path d="M41.3656 3.12005H51.1336V0.624047H38.8936V17.424H51.1336V7.15205H41.3656V3.12005ZM41.3656 9.62405H48.6376V14.928H41.3656V9.62405Z" fill="#101828"/>
<path d="M58.1545 0.624047H53.5225V17.376H56.0425V12.864H58.1545C59.8105 12.864 61.3705 12.264 62.4985 11.088C63.6505 9.91205 64.2985 8.40005 64.2985 6.76805C64.2985 5.11205 63.6505 3.55205 62.4985 2.42405C61.3705 1.27205 59.8105 0.624047 58.1545 0.624047ZM58.1545 10.344H56.0425V3.12005H58.1545C60.1465 3.12005 61.8025 4.77605 61.8025 6.76805C61.8025 8.76005 60.1465 10.344 58.1545 10.344Z" fill="#101828"/>
<path d="M83.9551 9.00005C83.9551 4.03205 79.9231 0.0240479 74.9791 0.0240479C70.0111 0.0240479 66.0031 4.03205 66.0031 9.00005C66.0031 13.944 70.0111 17.976 74.9791 17.976C79.9231 17.976 83.9551 13.944 83.9551 9.00005ZM68.5231 9.00005C68.5231 7.27205 69.1951 5.64005 70.4191 4.44005C71.6431 3.21605 73.2511 2.54405 74.9791 2.54405C76.7071 2.54405 78.3151 3.21605 79.5391 4.44005C80.7631 5.64005 81.4111 7.27205 81.4111 9.00005C81.4111 10.704 80.7631 12.336 79.5391 13.536C78.3151 14.76 76.7071 15.432 74.9791 15.432C73.2511 15.432 71.6431 14.76 70.4191 13.536C69.1951 12.336 68.5231 10.704 68.5231 9.00005Z" fill="#101828"/>
<path d="M87.3687 14.904H84.2247V17.376H101.673V14.904H98.5287V0.624047H87.3687V14.904ZM89.8407 3.07205H96.0807V14.904H89.8407V3.07205Z" fill="#101828"/>
<path d="M119.14 12.552L116.428 12.336C116.164 12.768 115.828 13.176 115.468 13.56C114.244 14.784 112.636 15.456 110.908 15.456C109.18 15.456 107.572 14.784 106.348 13.56C105.34 12.552 104.692 11.256 104.524 9.84005H119.836C119.86 9.57605 119.884 9.28805 119.884 9.00005C119.884 4.03205 115.876 0.0240479 110.908 0.0240479C105.94 0.0240479 101.932 4.03205 101.932 9.00005C101.932 13.968 105.94 17.976 110.908 17.976C114.604 17.976 117.772 15.744 119.14 12.552ZM110.908 2.54405C112.636 2.54405 114.244 3.21605 115.468 4.44005C116.284 5.25605 116.86 6.28805 117.148 7.36805H104.668C104.956 6.28805 105.532 5.25605 106.348 4.44005C107.572 3.21605 109.18 2.54405 110.908 2.54405Z" fill="#101828"/>
<path d="M131.716 3.09605V0.624047H120.532V3.09605H124.9V17.424H127.348V3.09605H131.716Z" fill="#101828"/>
<path d="M149.397 12.552L146.685 12.336C146.421 12.768 146.085 13.176 145.725 13.56C144.501 14.784 142.893 15.456 141.165 15.456C139.437 15.456 137.829 14.784 136.605 13.56C135.597 12.552 134.949 11.256 134.781 9.84005H150.093C150.117 9.57605 150.141 9.28805 150.141 9.00005C150.141 4.03205 146.133 0.0240479 141.165 0.0240479C136.197 0.0240479 132.189 4.03205 132.189 9.00005C132.189 13.968 136.197 17.976 141.165 17.976C144.861 17.976 148.029 15.744 149.397 12.552ZM141.165 2.54405C142.893 2.54405 144.501 3.21605 145.725 4.44005C146.541 5.25605 147.117 6.28805 147.405 7.36805H134.925C135.213 6.28805 135.789 5.25605 136.605 4.44005C137.829 3.21605 139.437 2.54405 141.165 2.54405Z" fill="#101828"/>
<path d="M153.699 17.424L156.435 3.09605H160.083V17.424H162.555V0.624047H154.227L151.011 17.424H153.699Z" fill="#101828"/>
<path d="M176.011 11.28C176.011 9.62405 175.363 8.08805 174.211 6.91205C173.059 5.76005 171.499 5.11205 169.867 5.11205H167.731V0.624047H165.187V17.424H169.867C171.499 17.424 173.059 16.776 174.211 15.624C175.363 14.448 176.011 12.912 176.011 11.28ZM169.867 14.88H167.731V7.65605H169.867C171.859 7.65605 173.491 9.28805 173.491 11.28C173.491 13.272 171.859 14.88 169.867 14.88Z" fill="#101828"/>
</svg>
